<svg width="100" height="100" viewBox="0 0 100 100" fill="none" xmlns="http://www.w3.org/2000/svg">
<rect width="100" height="100" rx="16.6667" fill="white"/>
<path d="M11.4528 63.0164C10.1856 61.2068 10.6254 58.7126 12.4351 57.4455L27.7259 46.7387C29.5355 45.4716 32.0297 45.9114 33.2968 47.721C34.5639 49.5307 34.1241 52.0248 32.3145 53.292L17.0237 63.9987C15.214 65.2658 12.7199 64.826 11.4528 63.0164Z" fill="black"/>
<path d="M11.4054 36.8321C12.6725 35.0225 15.1667 34.5827 16.9763 35.8498L32.2672 46.5566C34.0768 47.8237 34.5166 50.3179 33.2495 52.1275C31.9823 53.9371 29.4882 54.3769 27.6785 53.1098L12.3877 42.4031C10.5781 41.136 10.1383 38.6418 11.4054 36.8321Z" fill="black"/>
<path d="M59.694 63.0164C60.9611 61.2068 60.5213 58.7126 58.7117 57.4455L43.4208 46.7387C41.6112 45.4716 39.117 45.9114 37.8499 47.721C36.5828 49.5307 37.0226 52.0248 38.8322 53.292L54.1231 63.9987C55.9327 65.2658 58.4269 64.826 59.694 63.0164Z" fill="black"/>
<path d="M59.7413 36.8321C58.4742 35.0225 55.98 34.5827 54.1704 35.8498L38.8796 46.5566C37.07 47.8237 36.6302 50.3179 37.8973 52.1275C39.1644 53.9371 41.6586 54.3769 43.4682 53.1098L58.759 42.4031C60.5686 41.136 61.0084 38.6418 59.7413 36.8321Z" fill="black"/>
<path d="M61.0367 48.3877C59.7696 46.5781 57.2754 46.1383 55.4658 47.4054L49.2767 51.7391C47.4671 53.0062 47.0273 55.5004 48.2944 57.31C49.5615 59.1196 52.0557 59.5594 53.8653 58.2923L60.0544 53.9586C61.8641 52.6915 62.3038 50.1973 61.0367 48.3877Z" fill="black"/>
<path d="M87.4718 63.0164C88.7389 61.2068 88.2991 58.7126 86.4895 57.4455L71.1987 46.7387C69.389 45.4716 66.8949 45.9114 65.6278 47.721C64.3606 49.5307 64.8004 52.0248 66.6101 53.292L81.9009 63.9987C83.7105 65.2658 86.2047 64.826 87.4718 63.0164Z" fill="black"/>
<path d="M87.5192 36.8321C86.252 35.0225 83.7579 34.5827 81.9482 35.8498L66.6574 46.5566C64.8478 47.8237 64.408 50.3179 65.6751 52.1275C66.9422 53.9371 69.4364 54.3769 71.246 53.1098L86.5369 42.4031C88.3465 41.136 88.7863 38.6418 87.5192 36.8321Z" fill="black"/>
<path d="M88.8144 48.3877C87.5473 46.5781 85.0532 46.1383 83.2435 47.4054L77.0544 51.7391C75.2448 53.0062 74.805 55.5004 76.0721 57.31C77.3392 59.1196 79.8334 59.5594 81.643 58.2923L87.8321 53.9586C89.6418 52.6915 90.0816 50.1973 88.8144 48.3877Z" fill="black"/>
</svg>
